<svg width="80" height="80" viewBox="0 0 80 80" fill="none" xmlns="http://www.w3.org/2000/svg">
<path d="M40.0008 29.9995V43.3328M40.0008 56.6662H40.0341M72.4341 59.9995L45.7674 13.3328C45.186 12.3068 44.3428 11.4534 43.3238 10.8597C42.3049 10.2659 41.1467 9.95312 39.9674 9.95312C38.7881 9.95312 37.6299 10.2659 36.611 10.8597C35.5921 11.4534 34.7489 12.3068 34.1674 13.3328L7.50074 59.9995C6.91302 61.0173 6.60484 62.1725 6.60744 63.3478C6.61004 64.5232 6.92333 65.677 7.51556 66.6922C8.10779 67.7074 8.9579 68.5481 9.97973 69.1289C11.0016 69.7097 12.1588 70.01 13.3341 69.9995H66.6674C67.8371 69.9983 68.9858 69.6893 69.9983 69.1037C71.0109 68.5181 71.8515 67.6764 72.4358 66.6632C73.0201 65.6499 73.3275 64.5007 73.3272 63.3311C73.3269 62.1614 73.0189 61.0124 72.4341 59.9995Z" stroke="#6E777C" stroke-width="6.25" stroke-linecap="round" stroke-linejoin="round"/>
</svg>
