<svg width="24" height="24" viewBox="0 0 24 24" fill="none" xmlns="http://www.w3.org/2000/svg">
<path d="M14 19.75C14.4142 19.75 14.75 20.0858 14.75 20.5C14.75 20.9142 14.4142 21.25 14 21.25H10C9.58579 21.25 9.25 20.9142 9.25 20.5C9.25 20.0858 9.58579 19.75 10 19.75H14Z" fill="currentColor"/>
<path fill-rule="evenodd" clip-rule="evenodd" d="M12 2.75C16.2802 2.75 19.75 6.21979 19.75 10.5C19.75 13.8126 17.6717 16.6366 14.75 17.7461V18.2998C14.75 18.8245 14.3245 19.25 13.7998 19.25H10.2002C9.67553 19.25 9.25 18.8245 9.25 18.2998V17.7461C6.32832 16.6366 4.25 13.8126 4.25 10.5C4.25 6.21979 7.71979 2.75 12 2.75ZM12 4.25C8.54822 4.25 5.75 7.04822 5.75 10.5C5.75 13.2834 7.57016 15.6438 10.0869 16.4521C10.4715 16.5758 10.75 16.935 10.75 17.3594V17.75H13.25V17.3594C13.25 16.935 13.5285 16.5758 13.9131 16.4521L14.1475 16.3721C16.5423 15.4961 18.25 13.1963 18.25 10.5C18.25 7.04822 15.4518 4.25 12 4.25Z" fill="currentColor"/>
</svg>
