<svg width="24" height="24" viewBox="0 0 24 24" fill="none" xmlns="http://www.w3.org/2000/svg">
<path fill-rule="evenodd" clip-rule="evenodd" d="M13.2 13.25C14.0559 13.2502 14.7497 13.944 14.7498 14.7998V20.2002C14.7498 20.2169 14.7474 20.2334 14.7469 20.25H17.9998C18.69 20.2499 19.2497 19.6902 19.2498 19V14C19.2498 13.5858 19.5856 13.25 19.9998 13.25C20.414 13.2501 20.7498 13.5858 20.7498 14V19C20.7497 20.5186 19.5185 21.7499 17.9998 21.75H5.99984C4.48115 21.75 3.24998 20.5187 3.24984 19V14C3.24984 13.5858 3.58563 13.25 3.99984 13.25C4.41398 13.2501 4.74984 13.5858 4.74984 14V19C4.74998 19.6902 5.30957 20.25 5.99984 20.25H9.25277C9.25224 20.2334 9.24985 20.2169 9.24984 20.2002V14.7998C9.24995 13.9439 9.94376 13.2501 10.7996 13.25H13.2ZM10.7996 14.75C10.7722 14.7501 10.7499 14.7723 10.7498 14.7998V20.2002C10.7501 20.2275 10.7723 20.2499 10.7996 20.25H13.2C13.2273 20.2498 13.2496 20.2275 13.2498 20.2002V14.7998C13.2497 14.7724 13.2274 14.7502 13.2 14.75H10.7996Z" fill="currentColor"/>
<path d="M10.9705 2.91211C11.5578 2.39032 12.4419 2.39028 13.0291 2.91211L21.4979 10.4395C21.8072 10.7146 21.8354 11.1886 21.5604 11.498C21.2853 11.8075 20.8114 11.8353 20.5018 11.5605L12.033 4.0332C12.0141 4.01638 11.9856 4.01642 11.9666 4.0332L3.49789 11.5605C3.1884 11.8355 2.71449 11.8073 2.4393 11.498C2.16422 11.1885 2.19225 10.7146 2.5018 10.4395L10.9705 2.91211Z" fill="currentColor"/>
</svg>
