<svg width="53" height="32" viewBox="0 0 53 32" fill="none" xmlns="http://www.w3.org/2000/svg">
<path d="M13.1709 11.4852L13.1871 11.6318H16.3168C16.288 12.6159 16.04 13.4328 15.557 14.0671L15.5563 14.0682L15.5553 14.0693C15.1442 14.5945 14.6156 15.0049 13.9742 15.3023C14.8778 15.5909 15.6045 16.0615 16.1445 16.7198C16.8025 17.5009 17.1198 18.5598 17.1198 19.8727C17.1198 20.5637 16.9948 21.237 16.7456 21.8916C16.4952 22.5491 16.1199 23.1438 15.6212 23.6747L15.62 23.6759L15.619 23.6771C15.1149 24.1959 14.4791 24.6037 13.7169 24.9031C12.9496 25.2046 12.0725 25.3529 11.0892 25.3529H3.13184V22.5995H10.3408C11.0214 22.5995 11.5878 22.5257 12.0446 22.3833L12.1346 22.3538C12.6128 22.19 12.9801 21.9727 13.2463 21.7082C13.519 21.4372 13.708 21.1382 13.8179 20.8106C13.9313 20.4553 13.9883 20.0831 13.9883 19.6932C13.9883 19.3384 13.9316 19.0013 13.8188 18.6811L13.8183 18.6798L13.8179 18.6784C13.7084 18.352 13.5206 18.0631 13.2506 17.8106L13.2485 17.8086L13.2463 17.8064C12.9977 17.5593 12.6566 17.3593 12.2139 17.2127L12.2108 17.2117L12.2077 17.2107C11.7714 17.0501 11.2284 16.9664 10.5731 16.9664H3.13184V14.213H10.3924C11.3432 14.213 12.0255 13.981 12.4746 13.5501L12.4758 13.5489L12.477 13.5479C12.9498 13.1093 13.1883 12.5473 13.1883 11.8453C13.1883 11.72 13.1824 11.6 13.1709 11.4852Z" fill="url(#paint0_linear_628_11203)"/>
<path d="M13.1654 11.4348C13.1662 11.4419 13.1671 11.449 13.1679 11.4562L13.1703 11.4788C13.1688 11.4641 13.1671 11.4494 13.1654 11.4348Z" fill="url(#paint1_linear_628_11203)"/>
<path d="M10.4438 6.64648C12.3742 6.64649 13.8486 7.05145 14.829 7.8977L14.8755 7.93692C15.8444 8.76633 16.3194 9.94186 16.3194 11.4341V11.6311H13.1868L13.1676 11.4555C13.1004 10.8408 12.8682 10.3768 12.482 10.0442L12.4794 10.042L12.4768 10.0396C12.0309 9.62702 11.2994 9.39985 10.2373 9.39985H7.68352C5.16953 9.39985 3.13153 11.4274 3.13153 13.9286V25.3522H0V13.9319C0 9.90826 3.27852 6.64648 7.32278 6.64648H10.4438Z" fill="white"/>
<path d="M31.5107 11.4852L31.5269 11.6318H34.6567C34.6278 12.6159 34.3799 13.4328 33.8968 14.0671L33.8961 14.0682L33.8952 14.0693C33.4841 14.5945 32.9555 15.0049 32.3141 15.3023C33.2176 15.5909 33.9444 16.0615 34.4843 16.7198C35.1423 17.5009 35.4597 18.5598 35.4597 19.8727C35.4597 20.5637 35.3346 21.237 35.0854 21.8916C34.8351 22.5491 34.4597 23.1438 33.9611 23.6747L33.9599 23.6759L33.9588 23.6771C33.4548 24.1959 32.819 24.6037 32.0567 24.9031C31.2895 25.2046 30.4123 25.3529 29.429 25.3529H21.4717V22.5995H28.6806C29.3613 22.5995 29.9277 22.5257 30.3845 22.3833L30.4745 22.3538C30.9526 22.19 31.32 21.9727 31.5862 21.7082C31.8588 21.4372 32.0478 21.1382 32.1577 20.8106C32.2712 20.4553 32.3281 20.0831 32.3281 19.6932C32.3281 19.3384 32.2714 19.0013 32.1587 18.6811L32.1582 18.6798L32.1577 18.6784C32.0482 18.352 31.8604 18.0631 31.5905 17.8106L31.5883 17.8086L31.5862 17.8064C31.3375 17.5593 30.9965 17.3593 30.5537 17.2127L30.5506 17.2117L30.5475 17.2107C30.1113 17.0501 29.5683 16.9664 28.9129 16.9664H21.4717V14.213H28.7323C29.6831 14.213 30.3653 13.981 30.8144 13.5501L30.8156 13.5489L30.8168 13.5479C31.2897 13.1093 31.5281 12.5473 31.5281 11.8453C31.5281 11.72 31.5222 11.6 31.5107 11.4852Z" fill="url(#paint2_linear_628_11203)"/>
<path d="M31.5052 11.4348C31.5061 11.4419 31.507 11.449 31.5078 11.4562L31.5101 11.4788C31.5086 11.4641 31.5069 11.4494 31.5052 11.4348Z" fill="url(#paint3_linear_628_11203)"/>
<path d="M28.7846 6.64648C30.715 6.64649 32.1894 7.05145 33.1698 7.8977L33.2163 7.93692C34.1853 8.76633 34.6602 9.94186 34.6602 11.4341V11.6311H31.5276L31.5084 11.4555C31.4412 10.8408 31.209 10.3768 30.8229 10.0442L30.8203 10.042L30.8176 10.0396C30.3717 9.62702 29.6402 9.39985 28.5781 9.39985H26.0243C23.5103 9.39985 21.4723 11.4274 21.4723 13.9286V25.3522H18.3408V13.9319C18.3408 9.90826 21.6193 6.64648 25.6636 6.64648H28.7846Z" fill="white"/>
<path fill-rule="evenodd" clip-rule="evenodd" d="M53.0001 20.6715H52.9991C52.9768 22.1131 52.5018 23.2522 51.5562 24.0617L51.5097 24.101C50.5293 24.9472 49.0549 25.3522 47.1245 25.3523L36.6807 25.3521V13.9319C36.6807 9.90827 39.9592 6.64648 44.0035 6.64648H47.1245C49.0549 6.6465 50.5293 7.05142 51.5097 7.89765L51.5562 7.93691C52.5251 8.76631 53 9.94188 53.0001 11.4342V20.6715ZM49.846 11.437L49.8415 11.3983C49.7664 10.812 49.5368 10.3665 49.1627 10.0442L49.16 10.042L49.1575 10.0396C48.7116 9.62706 47.9801 9.39987 46.9179 9.39987H44.3642C41.8503 9.39987 39.8122 11.4274 39.8122 13.9286V22.5989H46.9179C47.9801 22.5989 48.7116 22.3717 49.1575 21.9591L49.16 21.9567L49.1627 21.9545C49.5488 21.6219 49.781 21.1579 49.8483 20.5432L49.8675 20.3676H49.8686V11.8445C49.8686 11.7179 49.8627 11.5967 49.851 11.4809L49.8675 11.631L49.8508 11.4786C49.8493 11.4647 49.8476 11.4508 49.846 11.437Z" fill="url(#paint4_linear_628_11203)"/>
<path d="M47.1244 6.64648C49.0549 6.64649 50.5293 7.05145 51.5096 7.8977L51.5561 7.93692C52.5251 8.76633 53.0001 9.94186 53.0001 11.4341V11.6311H49.8675L49.8482 11.4555C49.781 10.8408 49.5489 10.3768 49.1627 10.0442L49.1601 10.042L49.1575 10.0396C48.7116 9.62702 47.9801 9.39985 46.9179 9.39985H44.3642C41.8502 9.39985 39.8122 11.4274 39.8122 13.9286V25.3522H36.6807V13.9319C36.6807 9.90826 39.9592 6.64648 44.0034 6.64648H47.1244Z" fill="white"/>
<defs>
<linearGradient id="paint0_linear_628_11203" x1="13.2961" y1="14.1546" x2="5.59444" y2="25.2175" gradientUnits="userSpaceOnUse">
<stop stop-color="white"/>
<stop offset="1" stop-color="white" stop-opacity="0.3"/>
</linearGradient>
<linearGradient id="paint1_linear_628_11203" x1="13.2961" y1="14.1546" x2="5.59444" y2="25.2175" gradientUnits="userSpaceOnUse">
<stop stop-color="white"/>
<stop offset="1" stop-color="white" stop-opacity="0.3"/>
</linearGradient>
<linearGradient id="paint2_linear_628_11203" x1="31.6359" y1="14.1546" x2="23.9343" y2="25.2175" gradientUnits="userSpaceOnUse">
<stop stop-color="white"/>
<stop offset="1" stop-color="white" stop-opacity="0.3"/>
</linearGradient>
<linearGradient id="paint3_linear_628_11203" x1="31.6359" y1="14.1546" x2="23.9343" y2="25.2175" gradientUnits="userSpaceOnUse">
<stop stop-color="white"/>
<stop offset="1" stop-color="white" stop-opacity="0.3"/>
</linearGradient>
<linearGradient id="paint4_linear_628_11203" x1="48.539" y1="11.6683" x2="38.9845" y2="24.7717" gradientUnits="userSpaceOnUse">
<stop stop-color="white"/>
<stop offset="1" stop-color="white" stop-opacity="0.3"/>
</linearGradient>
</defs>
</svg>
