<svg width="79" height="28" viewBox="0 0 79 28" fill="none" xmlns="http://www.w3.org/2000/svg">
<path d="M19.6498 7.24185L19.6739 7.46124H24.3348C24.2918 8.93424 23.9226 10.1571 23.2032 11.1066L23.2022 11.1082L23.2007 11.1098C22.5885 11.896 21.8013 12.5104 20.8462 12.9555C22.1917 13.3874 23.274 14.0919 24.0781 15.0774C25.0581 16.2465 25.5306 17.8315 25.5306 19.7968C25.5306 20.8311 25.3444 21.839 24.9733 22.8188C24.6005 23.803 24.0415 24.6931 23.2989 25.4879L23.2971 25.4897L23.2955 25.4914C22.5449 26.268 21.598 26.8784 20.4629 27.3266C19.3203 27.7779 18.014 27.9999 16.5497 27.9999H4.69944V23.8785H15.4352C16.4488 23.8785 17.2923 23.7679 17.9726 23.5547L18.1066 23.5107C18.8186 23.2654 19.3657 22.9402 19.7621 22.5442C20.1682 22.1386 20.4496 21.691 20.6133 21.2007C20.7822 20.6689 20.8671 20.1117 20.8671 19.5281C20.8671 18.9969 20.7827 18.4924 20.6147 18.0131L20.614 18.0111L20.6133 18.009C20.4502 17.5204 20.1706 17.088 19.7685 16.71L19.7653 16.707L19.7621 16.7038C19.3918 16.3339 18.884 16.0346 18.2246 15.8151L18.22 15.8136L18.2154 15.812C17.5657 15.5717 16.757 15.4464 15.7811 15.4464H4.69944V11.3249H15.512C16.928 11.3249 17.944 10.9777 18.6128 10.3327L18.6146 10.3309L18.6164 10.3293C19.3206 9.67279 19.6757 8.83163 19.6757 7.78075C19.6757 7.5932 19.6669 7.41362 19.6498 7.24185Z" fill="url(#paint0_linear_0_8)"/>
<path d="M19.6416 7.16641C19.6429 7.17703 19.6442 7.18767 19.6454 7.19836L19.6489 7.23226C19.6467 7.21018 19.6441 7.18824 19.6416 7.16641Z" fill="url(#paint1_linear_0_8)"/>
<path d="M15.589 0C18.4638 9.7989e-06 20.6595 0.606186 22.1195 1.8729L22.1887 1.93161C23.6318 3.17312 24.3391 4.93273 24.3391 7.16648V7.46122H19.674L19.6453 7.19843C19.5452 6.27834 19.1995 5.58377 18.6244 5.08592L18.6205 5.08261L18.6166 5.07901C17.9526 4.46146 16.8632 4.12141 15.2814 4.12141H11.4784C7.73447 4.12141 4.69944 7.15644 4.69944 10.9003V27.9999H0.0359116V10.9052C0.0359116 4.88244 4.91835 0 10.9411 0H15.589Z" fill="white"/>
<path d="M46.9621 7.24185L46.9862 7.46124H51.6471C51.6042 8.93424 51.2349 10.1571 50.5155 11.1066L50.5145 11.1082L50.513 11.1098C49.9008 11.896 49.1136 12.5104 48.1585 12.9555C49.504 13.3874 50.5863 14.0919 51.3904 15.0774C52.3704 16.2465 52.8429 17.8315 52.8429 19.7968C52.8429 20.8311 52.6567 21.839 52.2856 22.8188C51.9128 23.803 51.3538 24.6931 50.6112 25.4879L50.6094 25.4897L50.6078 25.4914C49.8572 26.268 48.9103 26.8784 47.7752 27.3266C46.6326 27.7779 45.3263 27.9999 43.862 27.9999H32.0117V23.8785H42.7475C43.7611 23.8785 44.6046 23.7679 45.2849 23.5547L45.4189 23.5107C46.1309 23.2654 46.678 22.9402 47.0745 22.5442C47.4805 22.1386 47.762 21.691 47.9256 21.2007C48.0945 20.6689 48.1794 20.1117 48.1794 19.5281C48.1794 18.9969 48.095 18.4924 47.927 18.0131L47.9263 18.0111L47.9256 18.009C47.7625 17.5204 47.4829 17.088 47.0808 16.71L47.0777 16.707L47.0745 16.7038C46.7041 16.3339 46.1963 16.0346 45.5369 15.8151L45.5323 15.8136L45.5277 15.812C44.878 15.5717 44.0693 15.4464 43.0934 15.4464H32.0117V11.3249H42.8243C44.2403 11.3249 45.2563 10.9777 45.9251 10.3327L45.9269 10.3309L45.9287 10.3293C46.6329 9.67279 46.988 8.83163 46.988 7.78075C46.988 7.5932 46.9792 7.41362 46.9621 7.24185Z" fill="url(#paint2_linear_0_8)"/>
<path d="M46.9539 7.16641C46.9552 7.17703 46.9565 7.18767 46.9577 7.19836L46.9612 7.23226C46.959 7.21018 46.9565 7.18824 46.9539 7.16641Z" fill="url(#paint3_linear_0_8)"/>
<path d="M42.9013 0C45.7762 9.7989e-06 47.9719 0.606186 49.4319 1.8729L49.5011 1.93161C50.9441 3.17312 51.6514 4.93273 51.6514 7.16648V7.46122H46.9863L46.9577 7.19843C46.8576 6.27834 46.5119 5.58377 45.9368 5.08592L45.9329 5.08261L45.929 5.07901C45.2649 4.46146 44.1755 4.12141 42.5938 4.12141H38.7907C35.0468 4.12141 32.0118 7.15644 32.0118 10.9003V27.9999H27.3483V10.9052C27.3483 4.88244 32.2307 0 38.2535 0H42.9013Z" fill="white"/>
<path fill-rule="evenodd" clip-rule="evenodd" d="M78.9637 20.9936H78.9623C78.9291 23.1514 78.2218 24.8566 76.8135 26.0682L76.7442 26.127C75.2842 27.3937 73.0886 28 70.2137 28L54.6606 27.9998V10.9052C54.6606 4.88245 59.543 0 65.5658 0H70.2137C73.0885 2.14945e-05 75.2842 0.606133 76.7442 1.87283L76.8135 1.93159C78.2565 3.17309 78.9637 4.93276 78.9637 7.1665V20.9936ZM74.2667 7.17076L74.2599 7.11289C74.1481 6.23515 73.8062 5.56829 73.249 5.08599L73.2451 5.08261L73.2414 5.07906C72.5773 4.46152 71.4879 4.12144 69.9061 4.12144H66.1031C62.3592 4.12144 59.3241 7.1564 59.3241 10.9003V23.8786H69.9061C71.4879 23.8786 72.5773 23.5385 73.2414 22.9209L73.2451 22.9174L73.249 22.914C73.8241 22.4162 74.1699 21.7216 74.27 20.8016L74.2986 20.5387H74.3004V7.78066C74.3004 7.59116 74.2916 7.40982 74.2741 7.23643L74.2986 7.46115L74.2738 7.23306C74.2716 7.21216 74.2691 7.19142 74.2667 7.17076Z" fill="url(#paint4_linear_0_8)"/>
<path d="M70.2136 0C73.0885 9.7989e-06 75.2842 0.606185 76.7442 1.8729L76.8134 1.93161C78.2564 3.17312 78.9637 4.93273 78.9638 7.16648V7.46122H74.2986L74.27 7.19843C74.1699 6.27834 73.8242 5.58377 73.2491 5.08592L73.2452 5.08261L73.2413 5.07901C72.5773 4.46146 71.4879 4.12141 69.9061 4.12141H66.103C62.3591 4.12141 59.3241 7.15644 59.3241 10.9003V27.9999H54.6606V10.9052C54.6606 4.88244 59.543 0 65.5658 0H70.2136Z" fill="white"/>
<defs>
<linearGradient id="paint0_linear_0_8" x1="19.8362" y1="11.2375" x2="8.28754" y2="27.7417" gradientUnits="userSpaceOnUse">
<stop stop-color="white"/>
<stop offset="1" stop-color="white" stop-opacity="0.3"/>
</linearGradient>
<linearGradient id="paint1_linear_0_8" x1="19.8362" y1="11.2375" x2="8.28754" y2="27.7417" gradientUnits="userSpaceOnUse">
<stop stop-color="white"/>
<stop offset="1" stop-color="white" stop-opacity="0.3"/>
</linearGradient>
<linearGradient id="paint2_linear_0_8" x1="47.1485" y1="11.2375" x2="35.5998" y2="27.7417" gradientUnits="userSpaceOnUse">
<stop stop-color="white"/>
<stop offset="1" stop-color="white" stop-opacity="0.3"/>
</linearGradient>
<linearGradient id="paint3_linear_0_8" x1="47.1485" y1="11.2375" x2="35.5998" y2="27.7417" gradientUnits="userSpaceOnUse">
<stop stop-color="white"/>
<stop offset="1" stop-color="white" stop-opacity="0.3"/>
</linearGradient>
<linearGradient id="paint4_linear_0_8" x1="72.3202" y1="7.51697" x2="57.9963" y2="27.0612" gradientUnits="userSpaceOnUse">
<stop stop-color="white"/>
<stop offset="1" stop-color="white" stop-opacity="0.3"/>
</linearGradient>
</defs>
</svg>
