<svg width="120" height="196" viewBox="0 0 120 196" fill="none" xmlns="http://www.w3.org/2000/svg">
<g opacity="0.5">
<g opacity="0.2">
<path d="M47.5 17.5H40C38.6739 17.5 37.4021 18.0268 36.4645 18.9645C35.5268 19.9021 35 21.1739 35 22.5V45C35 46.3261 35.5268 47.5979 36.4645 48.5355C37.4021 49.4732 38.6739 50 40 50H80" fill="white" fill-opacity="0.5"/>
<path d="M53.75 10H66.25L72.5 17.5H80C81.3261 17.5 82.5979 18.0268 83.5355 18.9645C84.4732 19.9021 85 21.1739 85 22.5V41.25" fill="white" fill-opacity="0.5"/>
<path d="M65.3025 37.8025C64.6136 38.5308 63.7858 39.1136 62.8678 39.5165C61.9498 39.9193 60.9604 40.1341 59.9581 40.148C58.9557 40.1619 57.9607 39.9748 57.0319 39.5976C56.1031 39.2204 55.2593 38.6609 54.5505 37.952C53.8416 37.2432 53.2821 36.3994 52.9049 35.4706C52.5277 34.5418 52.3406 33.5468 52.3545 32.5444C52.3684 31.5421 52.5832 30.5527 52.986 29.6347C53.3889 28.7167 53.9717 27.8889 54.7 27.2" fill="white" fill-opacity="0.5"/>
<path d="M35 5L85 55M47.5 17.5H40C38.6739 17.5 37.4021 18.0268 36.4645 18.9645C35.5268 19.9021 35 21.1739 35 22.5V45C35 46.3261 35.5268 47.5979 36.4645 48.5355C37.4021 49.4732 38.6739 50 40 50H80M53.75 10H66.25L72.5 17.5H80C81.3261 17.5 82.5979 18.0268 83.5355 18.9645C84.4732 19.9021 85 21.1739 85 22.5V41.25M65.3025 37.8025C64.6136 38.5308 63.7858 39.1136 62.8678 39.5165C61.9498 39.9193 60.9604 40.1341 59.9581 40.148C58.9557 40.1619 57.9607 39.9748 57.0319 39.5976C56.1031 39.2204 55.2593 38.6609 54.5505 37.952C53.8416 37.2432 53.2821 36.3994 52.9049 35.4706C52.5277 34.5418 52.3406 33.5468 52.3545 32.5444C52.3684 31.5421 52.5832 30.5527 52.986 29.6347C53.3889 28.7167 53.9717 27.8889 54.7 27.2" stroke="white" stroke-opacity="0.5" stroke-linecap="round" stroke-linejoin="round"/>
</g>
</g>
<path opacity="0.5" d="M25.0456 86V74.8H26.0216L33.7496 84.528H33.2376V74.8H34.4056V86H33.4296L25.7176 76.272H26.2296V86H25.0456ZM40.9252 86.08C40.1145 86.08 39.3839 85.8987 38.7332 85.536C38.0932 85.1627 37.5865 84.656 37.2132 84.016C36.8399 83.3653 36.6532 82.624 36.6532 81.792C36.6532 80.9493 36.8399 80.208 37.2132 79.568C37.5865 78.928 38.0932 78.4267 38.7332 78.064C39.3732 77.7013 40.1039 77.52 40.9252 77.52C41.7572 77.52 42.4932 77.7013 43.1332 78.064C43.7839 78.4267 44.2905 78.928 44.6532 79.568C45.0265 80.208 45.2132 80.9493 45.2132 81.792C45.2132 82.624 45.0265 83.3653 44.6532 84.016C44.2905 84.656 43.7839 85.1627 43.1332 85.536C42.4825 85.8987 41.7465 86.08 40.9252 86.08ZM40.9252 85.072C41.5332 85.072 42.0719 84.9387 42.5412 84.672C43.0105 84.3947 43.3785 84.0107 43.6452 83.52C43.9225 83.0187 44.0612 82.4427 44.0612 81.792C44.0612 81.1307 43.9225 80.5547 43.6452 80.064C43.3785 79.5733 43.0105 79.1947 42.5412 78.928C42.0719 78.6507 41.5385 78.512 40.9412 78.512C40.3439 78.512 39.8105 78.6507 39.3412 78.928C38.8719 79.1947 38.4985 79.5733 38.2212 80.064C37.9439 80.5547 37.8052 81.1307 37.8052 81.792C37.8052 82.4427 37.9439 83.0187 38.2212 83.52C38.4985 84.0107 38.8719 84.3947 39.3412 84.672C39.8105 84.9387 40.3385 85.072 40.9252 85.072ZM51.3199 86V74.8H55.5119C56.4613 74.8 57.2773 74.9547 57.9599 75.264C58.6426 75.5627 59.1653 76 59.5279 76.576C59.9013 77.1413 60.0879 77.8293 60.0879 78.64C60.0879 79.4293 59.9013 80.112 59.5279 80.688C59.1653 81.2533 58.6426 81.6907 57.9599 82C57.2773 82.3093 56.4613 82.464 55.5119 82.464H51.9759L52.5039 81.904V86H51.3199ZM52.5039 82L51.9759 81.424H55.4799C56.5999 81.424 57.4479 81.184 58.0239 80.704C58.6106 80.2133 58.9039 79.5253 58.9039 78.64C58.9039 77.744 58.6106 77.0507 58.0239 76.56C57.4479 76.0693 56.5999 75.824 55.4799 75.824H51.9759L52.5039 75.264V82ZM62.2443 86V74.128H63.3803V79.904L63.1563 79.472C63.423 78.864 63.8496 78.3893 64.4363 78.048C65.023 77.696 65.7216 77.52 66.5323 77.52C67.215 77.52 67.8123 77.6533 68.3243 77.92C68.847 78.176 69.2523 78.5707 69.5403 79.104C69.839 79.6373 69.9883 80.3093 69.9883 81.12V86H68.8523V81.232C68.8523 80.3467 68.6283 79.68 68.1803 79.232C67.743 78.7733 67.1243 78.544 66.3243 78.544C65.727 78.544 65.2043 78.6667 64.7563 78.912C64.319 79.1467 63.9776 79.4933 63.7323 79.952C63.4976 80.4 63.3803 80.944 63.3803 81.584V86H62.2443ZM76.1608 86.08C75.3501 86.08 74.6195 85.8987 73.9688 85.536C73.3288 85.1627 72.8221 84.656 72.4488 84.016C72.0755 83.3653 71.8888 82.624 71.8888 81.792C71.8888 80.9493 72.0755 80.208 72.4488 79.568C72.8221 78.928 73.3288 78.4267 73.9688 78.064C74.6088 77.7013 75.3395 77.52 76.1608 77.52C76.9928 77.52 77.7288 77.7013 78.3688 78.064C79.0195 78.4267 79.5261 78.928 79.8888 79.568C80.2621 80.208 80.4488 80.9493 80.4488 81.792C80.4488 82.624 80.2621 83.3653 79.8888 84.016C79.5261 84.656 79.0195 85.1627 78.3688 85.536C77.7181 85.8987 76.9821 86.08 76.1608 86.08ZM76.1608 85.072C76.7688 85.072 77.3075 84.9387 77.7768 84.672C78.2461 84.3947 78.6141 84.0107 78.8808 83.52C79.1581 83.0187 79.2968 82.4427 79.2968 81.792C79.2968 81.1307 79.1581 80.5547 78.8808 80.064C78.6141 79.5733 78.2461 79.1947 77.7768 78.928C77.3075 78.6507 76.7741 78.512 76.1768 78.512C75.5795 78.512 75.0461 78.6507 74.5768 78.928C74.1075 79.1947 73.7341 79.5733 73.4568 80.064C73.1795 80.5547 73.0408 81.1307 73.0408 81.792C73.0408 82.4427 73.1795 83.0187 73.4568 83.52C73.7341 84.0107 74.1075 84.3947 74.5768 84.672C75.0461 84.9387 75.5741 85.072 76.1608 85.072ZM85.1041 86.08C84.3147 86.08 83.7067 85.8667 83.2801 85.44C82.8534 85.0133 82.6401 84.4107 82.6401 83.632V75.744H83.7761V83.568C83.7761 84.0587 83.8987 84.4373 84.1441 84.704C84.4001 84.9707 84.7627 85.104 85.2321 85.104C85.7334 85.104 86.1494 84.96 86.4801 84.672L86.8801 85.488C86.6561 85.6907 86.3841 85.84 86.0641 85.936C85.7547 86.032 85.4347 86.08 85.1041 86.08ZM81.1361 78.544V77.6H86.3361V78.544H81.1361ZM91.7552 86.08C90.9445 86.08 90.2139 85.8987 89.5632 85.536C88.9232 85.1627 88.4165 84.656 88.0432 84.016C87.6699 83.3653 87.4832 82.624 87.4832 81.792C87.4832 80.9493 87.6699 80.208 88.0432 79.568C88.4165 78.928 88.9232 78.4267 89.5632 78.064C90.2032 77.7013 90.9339 77.52 91.7552 77.52C92.5872 77.52 93.3232 77.7013 93.9632 78.064C94.6139 78.4267 95.1205 78.928 95.4832 79.568C95.8565 80.208 96.0432 80.9493 96.0432 81.792C96.0432 82.624 95.8565 83.3653 95.4832 84.016C95.1205 84.656 94.6139 85.1627 93.9632 85.536C93.3125 85.8987 92.5765 86.08 91.7552 86.08ZM91.7552 85.072C92.3632 85.072 92.9019 84.9387 93.3712 84.672C93.8405 84.3947 94.2085 84.0107 94.4752 83.52C94.7525 83.0187 94.8912 82.4427 94.8912 81.792C94.8912 81.1307 94.7525 80.5547 94.4752 80.064C94.2085 79.5733 93.8405 79.1947 93.3712 78.928C92.9019 78.6507 92.3685 78.512 91.7712 78.512C91.1739 78.512 90.6405 78.6507 90.1712 78.928C89.7019 79.1947 89.3285 79.5733 89.0512 80.064C88.7739 80.5547 88.6352 81.1307 88.6352 81.792C88.6352 82.4427 88.7739 83.0187 89.0512 83.52C89.3285 84.0107 89.7019 84.3947 90.1712 84.672C90.6405 84.9387 91.1685 85.072 91.7552 85.072Z" fill="white"/>
<g filter="url(#filter0_d_2_96)">
<rect x="33" y="109" width="54" height="54" rx="27" stroke="url(#paint0_linear_2_96)" stroke-width="2" shape-rendering="crispEdges"/>
<circle cx="60" cy="136" r="22" fill="url(#paint1_linear_2_96)"/>
</g>
<defs>
<filter id="filter0_d_2_96" x="0" y="76" width="120" height="120" filterUnits="userSpaceOnUse" color-interpolation-filters="sRGB">
<feFlood flood-opacity="0" result="BackgroundImageFix"/>
<feColorMatrix in="SourceAlpha" type="matrix" values="0 0 0 0 0 0 0 0 0 0 0 0 0 0 0 0 0 0 127 0" result="hardAlpha"/>
<feOffset/>
<feGaussianBlur stdDeviation="16"/>
<feComposite in2="hardAlpha" operator="out"/>
<feColorMatrix type="matrix" values="0 0 0 0 1 0 0 0 0 1 0 0 0 0 1 0 0 0 0.5 0"/>
<feBlend mode="normal" in2="BackgroundImageFix" result="effect1_dropShadow_2_96"/>
<feBlend mode="normal" in="SourceGraphic" in2="effect1_dropShadow_2_96" result="shape"/>
</filter>
<linearGradient id="paint0_linear_2_96" x1="60" y1="108" x2="60" y2="164" gradientUnits="userSpaceOnUse">
<stop stop-color="white"/>
<stop offset="1" stop-color="white" stop-opacity="0.5"/>
</linearGradient>
<linearGradient id="paint1_linear_2_96" x1="60" y1="114" x2="60" y2="158" gradientUnits="userSpaceOnUse">
<stop stop-color="white"/>
<stop offset="1" stop-color="white" stop-opacity="0.5"/>
</linearGradient>
</defs>
</svg>
